<mxfile host="65bd71144e">
    <diagram id="QZPq2zdvfxNVD3eX0i5w" name="Page-1">
        <mxGraphModel dx="730" dy="656" grid="1" gridSize="10" guides="1" tooltips="1" connect="1" arrows="1" fold="1" page="1" pageScale="1" pageWidth="850" pageHeight="1100" math="0" shadow="0">
            <root>
                <mxCell id="0"/>
                <mxCell id="1" parent="0"/>
                <mxCell id="12" style="edgeStyle=none;html=1;exitX=0.5;exitY=1;exitDx=0;exitDy=0;entryX=0.5;entryY=0;entryDx=0;entryDy=0;" edge="1" parent="1" source="3" target="4">
                    <mxGeometry relative="1" as="geometry"/>
                </mxCell>
                <mxCell id="3" value="&lt;span style=&quot;font-family: Consolas, &amp;quot;Courier New&amp;quot;, monospace; font-size: 14px; color: rgb(86, 156, 214);&quot;&gt;void&lt;/span&gt;&lt;span style=&quot;color: rgb(212, 212, 212); font-family: Consolas, &amp;quot;Courier New&amp;quot;, monospace; font-size: 14px; background-color: rgb(30, 30, 30);&quot;&gt;&amp;nbsp;&lt;/span&gt;&lt;span style=&quot;font-family: Consolas, &amp;quot;Courier New&amp;quot;, monospace; font-size: 14px; color: rgb(220, 220, 170);&quot;&gt;FillByUser&lt;/span&gt;&lt;span style=&quot;color: rgb(212, 212, 212); font-family: Consolas, &amp;quot;Courier New&amp;quot;, monospace; font-size: 14px; background-color: rgb(30, 30, 30);&quot;&gt;(&lt;/span&gt;&lt;span style=&quot;font-family: Consolas, &amp;quot;Courier New&amp;quot;, monospace; font-size: 14px; color: rgb(86, 156, 214);&quot;&gt;string&lt;/span&gt;&lt;span style=&quot;color: rgb(212, 212, 212); font-family: Consolas, &amp;quot;Courier New&amp;quot;, monospace; font-size: 14px; background-color: rgb(30, 30, 30);&quot;&gt;[]&amp;nbsp;&lt;/span&gt;&lt;span style=&quot;font-family: Consolas, &amp;quot;Courier New&amp;quot;, monospace; font-size: 14px; color: rgb(156, 220, 254);&quot;&gt;array&lt;/span&gt;&lt;span style=&quot;color: rgb(212, 212, 212); font-family: Consolas, &amp;quot;Courier New&amp;quot;, monospace; font-size: 14px; background-color: rgb(30, 30, 30);&quot;&gt;)&lt;/span&gt;" style="ellipse;whiteSpace=wrap;html=1;" vertex="1" parent="1">
                    <mxGeometry x="310" y="30" width="267.5" height="120" as="geometry"/>
                </mxCell>
                <mxCell id="13" style="edgeStyle=none;html=1;exitX=0.5;exitY=1;exitDx=0;exitDy=0;entryX=0.5;entryY=0;entryDx=0;entryDy=0;" edge="1" parent="1" source="4" target="5">
                    <mxGeometry relative="1" as="geometry"/>
                </mxCell>
                <mxCell id="4" value="&lt;div style=&quot;color: rgb(212, 212, 212); background-color: rgb(30, 30, 30); font-family: Consolas, &amp;quot;Courier New&amp;quot;, monospace; font-size: 14px; line-height: 19px;&quot;&gt;&lt;span style=&quot;color: #569cd6;&quot;&gt;int&lt;/span&gt; &lt;span style=&quot;color: #9cdcfe;&quot;&gt;size&lt;/span&gt; = &lt;span style=&quot;color: #9cdcfe;&quot;&gt;array&lt;/span&gt;.&lt;span style=&quot;color: #9cdcfe;&quot;&gt;Length&lt;/span&gt;;&lt;/div&gt;&lt;div style=&quot;color: rgb(212, 212, 212); background-color: rgb(30, 30, 30); font-family: Consolas, &amp;quot;Courier New&amp;quot;, monospace; font-size: 14px; line-height: 19px;&quot;&gt;&lt;span style=&quot;color: rgb(86, 156, 214);&quot;&gt;int&lt;/span&gt; &lt;span style=&quot;color: rgb(156, 220, 254);&quot;&gt;index&lt;/span&gt; = &lt;span style=&quot;color: rgb(181, 206, 168);&quot;&gt;0&lt;/span&gt;;&lt;/div&gt;" style="rounded=0;whiteSpace=wrap;html=1;" vertex="1" parent="1">
                    <mxGeometry x="341.25" y="200" width="205" height="90" as="geometry"/>
                </mxCell>
                <mxCell id="8" style="edgeStyle=none;html=1;entryX=0.5;entryY=0;entryDx=0;entryDy=0;" edge="1" parent="1" source="5" target="7">
                    <mxGeometry relative="1" as="geometry"/>
                </mxCell>
                <mxCell id="16" value="true" style="edgeLabel;html=1;align=center;verticalAlign=middle;resizable=0;points=[];" vertex="1" connectable="0" parent="8">
                    <mxGeometry x="-0.3285" relative="1" as="geometry">
                        <mxPoint as="offset"/>
                    </mxGeometry>
                </mxCell>
                <mxCell id="14" style="edgeStyle=none;html=1;exitX=1;exitY=0.5;exitDx=0;exitDy=0;" edge="1" parent="1" source="5">
                    <mxGeometry relative="1" as="geometry">
                        <mxPoint x="640" y="415" as="targetPoint"/>
                        <Array as="points"/>
                    </mxGeometry>
                </mxCell>
                <mxCell id="18" value="false" style="edgeLabel;html=1;align=center;verticalAlign=middle;resizable=0;points=[];" vertex="1" connectable="0" parent="14">
                    <mxGeometry x="-0.3986" y="2" relative="1" as="geometry">
                        <mxPoint as="offset"/>
                    </mxGeometry>
                </mxCell>
                <mxCell id="5" value="&lt;div style=&quot;color: rgb(212, 212, 212); background-color: rgb(30, 30, 30); font-family: Consolas, &amp;quot;Courier New&amp;quot;, monospace; font-size: 14px; line-height: 19px;&quot;&gt;&lt;span style=&quot;color: #c586c0;&quot;&gt;while&lt;/span&gt; &lt;span style=&quot;color: #9cdcfe;&quot;&gt;index&lt;/span&gt; &amp;lt; &lt;span style=&quot;color: #9cdcfe;&quot;&gt;size&lt;/span&gt;&lt;/div&gt;" style="rhombus;whiteSpace=wrap;html=1;" vertex="1" parent="1">
                    <mxGeometry x="318.75" y="340" width="250" height="150" as="geometry"/>
                </mxCell>
                <mxCell id="10" style="edgeStyle=none;html=1;exitX=0.5;exitY=1;exitDx=0;exitDy=0;entryX=0.5;entryY=0;entryDx=0;entryDy=0;" edge="1" parent="1" source="7" target="9">
                    <mxGeometry relative="1" as="geometry"/>
                </mxCell>
                <mxCell id="7" value="&lt;div style=&quot;color: rgb(212, 212, 212); background-color: rgb(30, 30, 30); font-family: Consolas, &amp;quot;Courier New&amp;quot;, monospace; font-size: 14px; line-height: 19px;&quot;&gt;&lt;span style=&quot;color: #9cdcfe;&quot;&gt;array&lt;/span&gt;[&lt;span style=&quot;color: #9cdcfe;&quot;&gt;index&lt;/span&gt;] = &lt;span style=&quot;color: #dcdcaa;&quot;&gt;GetString&lt;/span&gt;(&lt;span style=&quot;color: #ce9178;&quot;&gt;&quot;Введите &quot;&lt;/span&gt; + &lt;span style=&quot;color: #9cdcfe;&quot;&gt;index&lt;/span&gt; + &lt;span style=&quot;color: #ce9178;&quot;&gt;&quot; элемент: &quot;&lt;/span&gt;);&lt;/div&gt;" style="rounded=0;whiteSpace=wrap;html=1;" vertex="1" parent="1">
                    <mxGeometry x="293.75" y="560" width="300" height="80" as="geometry"/>
                </mxCell>
                <mxCell id="11" style="edgeStyle=none;html=1;entryX=0;entryY=0.5;entryDx=0;entryDy=0;" edge="1" parent="1" source="9" target="5">
                    <mxGeometry relative="1" as="geometry">
                        <Array as="points">
                            <mxPoint x="250" y="700"/>
                            <mxPoint x="250" y="415"/>
                        </Array>
                    </mxGeometry>
                </mxCell>
                <mxCell id="9" value="&lt;div style=&quot;color: rgb(212, 212, 212); background-color: rgb(30, 30, 30); font-family: Consolas, &amp;quot;Courier New&amp;quot;, monospace; font-size: 14px; line-height: 19px;&quot;&gt;&lt;span style=&quot;color: #9cdcfe;&quot;&gt;index&lt;/span&gt;++;&lt;/div&gt;" style="rounded=0;whiteSpace=wrap;html=1;" vertex="1" parent="1">
                    <mxGeometry x="383.75" y="670" width="120" height="60" as="geometry"/>
                </mxCell>
                <mxCell id="15" value="end" style="ellipse;whiteSpace=wrap;html=1;" vertex="1" parent="1">
                    <mxGeometry x="640" y="375" width="120" height="80" as="geometry"/>
                </mxCell>
            </root>
        </mxGraphModel>
    </diagram>
</mxfile>